<svg xmlns="http://www.w3.org/2000/svg" width="500.354" height="100" xmlns:v="https://vecta.io/nano"><style><![CDATA[.B{fill:rgba(51,51,51,0)}.C{fill:#03ab9f}.D{fill:#e44691}]]></style><path d="M0 0h45v45H0z" class="B"/><path d="M87.5,0V62.49A37.49,37.49,0,0,1,50.33,100H84.18A49.86,49.86,0,0,0,100,64.16V0ZM0,0V100H49.67A37.49,37.49,0,0,1,12.5,62.51H31.26V0Z" fill="#4284c5"/><path d="M84.18,100H100V64.16A49.86,49.86,0,0,1,84.18,100Z" fill="#21577a"/><path d="M50,81.28A18.75,18.75,0,0,0,68.76,62.53V0H62.5V62.49a12.5,12.5,0,0,1-25,0H31.26A18.74,18.74,0,0,0,50,81.28Z" class="D"/><path d="M50,75A12.5,12.5,0,0,0,62.5,62.5V0H31.26V62.51H37.5A12.5,12.5,0,0,0,50,75Z" fill="#39226f"/><path d="M100.088 0h45v45h-45z" class="B"/><path d="M159.938 0h-19.7l9.85 20.8z" class="D"/><path d="M187.608 0h12.48v100h-12.48zm-75.02 0h-12.5v100h12.5l23.67-50z" fill="#4284c5"/><path d="M175.108 0l-47.34 100h12.47l47.35-100z" class="D"/><path d="M187.588 0l-47.35 100h47.37V0h-.02z" fill="#39226f"/><path d="M200.177 0h45v45h-45z" class="B"/><path d="M262.677 48.55v-11c0-6.904-5.596-12.5-12.5-12.5s-12.5 5.596-12.5 12.5v11c7.105-6.398 17.895-6.398 25 0z" fill="#ef97ef"/><path d="M212.677 62.5v-25c0-20.711 16.789-37.5 37.5-37.5h-50v100h50c-20.711 0-37.5-16.789-37.5-37.5zm37.5-62.5c20.711 0 37.5 16.789 37.5 37.5v25c0 20.711-16.789 37.5-37.5 37.5h50V0zm12.5 48.55v14c0 6.904-5.596 12.5-12.5 12.5s-12.5-5.596-12.5-12.5v-14a18.75 18.75 0 1 0 25 0z" fill="#f8a542"/><path d="M250.177 75c6.904 0 12.5-5.596 12.5-12.5v-14c-7.105-6.398-17.895-6.398-25 0v14c0 6.904 5.596 12.5 12.5 12.5z" fill="#db6a41"/><path d="M300.265 0h45v45h-45z" class="B"/><path d="M300.265 0h12.5v100h-12.5zm62.5 46.8V0h-25.04l.04.07z" class="C"/><path d="M331.065 24.23V100h6.7V53.07l25 46.73.11.2h8.73l-.17-.32z" fill="#8c7ebb"/><path d="M337.765 53.07V100h25.11l-.11-.2-25-46.73z" fill="#1f5274"/><path d="M381.515 0h6.25v100h-6.25z" class="C"/><path d="M387.765 0h6.25v100h-6.25z" fill="#21556f"/><path d="M394.015 0h6.25v100h-6.25z" fill="#df81b3"/><path d="M400.354 0h45v45h-45z" class="B"/><path d="M400.354 0h12.5v100h-12.5zm62.5 46.8V0h-25.04l.04.07z" class="C"/><path d="M431.154 24.23V100h6.7V53.07l25 46.73.11.2h8.73l-.17-.32z" fill="#8c7ebb"/><path d="M437.854 53.07V100h25.11l-.11-.2-25-46.73z" fill="#1f5274"/><path d="M481.604 0h6.25v100h-6.25z" class="C"/><path d="M487.854 0h6.25v100h-6.25z" fill="#21556f"/><path d="M494.104 0h6.25v100h-6.25z" fill="#df81b3"/></svg>