<svg id="组_33" data-name="组 33" xmlns="http://www.w3.org/2000/svg" width="500.354" height="100" viewBox="0 0 500.354 100">
	<g id="组_27" data-name="组 27">
		<g id="组_26" data-name="组 26">
			<g id="组_5" data-name="组 5">
				<g id="组_4" data-name="组 4">
					<g id="组_3" data-name="组 3">
						<rect id="矩形_3" data-name="矩形 3" width="45" height="45" fill="rgba(51,51,51,0)"/>
						<g id="组_2" data-name="组 2">
							<g id="组_1" data-name="组 1">
								<path id="路径_1" data-name="路径 1" d="M87.5,0V62.49A37.49,37.49,0,0,1,50.33,100H84.18A49.86,49.86,0,0,0,100,64.16V0ZM0,0V100H49.67A37.49,37.49,0,0,1,12.5,62.51H31.26V0Z" fill="#4284c5"/>
								<path id="路径_2" data-name="路径 2" d="M84.18,100H100V64.16A49.86,49.86,0,0,1,84.18,100Z" fill="#21577a"/>
								<path id="路径_3" data-name="路径 3" d="M50,81.28A18.75,18.75,0,0,0,68.76,62.53V0H62.5V62.49a12.5,12.5,0,0,1-25,0H31.26A18.74,18.74,0,0,0,50,81.28Z" fill="#e44691"/>
								<path id="路径_4" data-name="路径 4" d="M50,75A12.5,12.5,0,0,0,62.5,62.5V0H31.26V62.51H37.5A12.5,12.5,0,0,0,50,75Z" fill="#39226f"/>
							</g>
						</g>
					</g>
				</g>
			</g>
			<g id="组_10" data-name="组 10" transform="translate(100.088)">
				<g id="组_9" data-name="组 9">
					<g id="组_8" data-name="组 8">
						<rect id="矩形_4" data-name="矩形 4" width="45" height="45" fill="rgba(51,51,51,0)"/>
						<g id="组_7" data-name="组 7">
							<g id="组_6" data-name="组 6">
								<path id="路径_5" data-name="路径 5" d="M59.85,0H40.15L50,20.8Z" fill="#e44691"/>
								<path id="路径_6" data-name="路径 6" d="M87.52,0H100V100H87.52ZM12.5,0H0V100H12.5L36.17,50Z" fill="#4284c5"/>
								<path id="路径_7" data-name="路径 7" d="M75.02,0,27.68,100H40.15L87.5,0Z" fill="#e44691"/>
								<path id="路径_8" data-name="路径 8" d="M87.5,0,40.15,100H87.52V0H87.5Z" fill="#39226f"/>
							</g>
						</g>
					</g>
				</g>
			</g>
			<g id="组_15" data-name="组 15" transform="translate(200.177)">
				<g id="组_14" data-name="组 14">
					<g id="组_13" data-name="组 13">
						<rect id="矩形_5" data-name="矩形 5" width="45" height="45" fill="rgba(51,51,51,0)"/>
						<g id="组_12" data-name="组 12">
							<g id="组_11" data-name="组 11">
								<path id="路径_9" data-name="路径 9" d="M87.5,62.5v-25a37.5,37.5,0,1,0-75,0v25a37.5,37.5,0,0,0,75,0ZM50,81.25a18.73,18.73,0,0,1-12.5-32.7v-11a12.5,12.5,0,1,1,25,0v11A18.73,18.73,0,0,1,50,81.25Z" fill="none"/>
								<path id="路径_10" data-name="路径 10" d="M62.5,48.55v-11a12.5,12.5,0,1,0-25,0v11a18.68,18.68,0,0,1,25,0Z" fill="#ef97ef"/>
								<path id="路径_11" data-name="路径 11" d="M12.5,62.5v-25A37.5,37.5,0,0,1,50,0H0V100H50A37.5,37.5,0,0,1,12.5,62.5ZM50,0A37.5,37.5,0,0,1,87.5,37.5v25A37.5,37.5,0,0,1,50,100h50V0Z" fill="#f8a542"/>
								<path id="路径_12" data-name="路径 12" d="M62.5,48.55v14a12.5,12.5,0,0,1-25,0v-14a18.75,18.75,0,1,0,25,0Z" fill="#f8a542"/>
								<path id="路径_13" data-name="路径 13" d="M50,75A12.5,12.5,0,0,0,62.5,62.5v-14a18.68,18.68,0,0,0-25,0v14A12.5,12.5,0,0,0,50,75Z" fill="#db6a41"/>
							</g>
						</g>
					</g>
				</g>
			</g>
			<g id="组_20" data-name="组 20" transform="translate(300.265)">
				<g id="组_19" data-name="组 19">
					<g id="组_18" data-name="组 18">
						<rect id="矩形_6" data-name="矩形 6" width="45" height="45" fill="rgba(51,51,51,0)"/>
						<g id="组_17" data-name="组 17">
							<g id="组_16" data-name="组 16">
								<path id="路径_14" data-name="路径 14" d="M0,0H12.5V100H0ZM62.5,46.8V0H37.46l.04.07Z" fill="#03ab9f"/>
								<path id="路径_15" data-name="路径 15" d="M30.8,24.23V100h6.7V53.07l25,46.73.11.2h8.73l-.17-.32Z" fill="#8c7ebb"/>
								<path id="路径_16" data-name="路径 16" d="M37.5,53.07V100H62.61l-.11-.2-25-46.73Z" fill="#1f5274"/>
								<path id="路径_17" data-name="路径 17" d="M81.25,0H87.5V100H81.25Z" fill="#03ab9f"/>
								<path id="路径_18" data-name="路径 18" d="M87.5,0h6.25V100H87.5Z" fill="#21556f"/>
								<path id="路径_19" data-name="路径 19" d="M93.75,0H100V100H93.75Z" fill="#df81b3"/>
							</g>
						</g>
					</g>
				</g>
			</g>
			<g id="组_25" data-name="组 25" transform="translate(400.354)">
				<g id="组_24" data-name="组 24">
					<g id="组_23" data-name="组 23">
						<rect id="矩形_7" data-name="矩形 7" width="45" height="45" fill="rgba(51,51,51,0)"/>
						<g id="组_22" data-name="组 22">
							<g id="组_21" data-name="组 21">
								<path id="路径_20" data-name="路径 20" d="M0,0H12.5V100H0ZM62.5,46.8V0H37.46l.04.07Z" fill="#03ab9f"/>
								<path id="路径_21" data-name="路径 21" d="M30.8,24.23V100h6.7V53.07l25,46.73.11.2h8.73l-.17-.32Z" fill="#8c7ebb"/>
								<path id="路径_22" data-name="路径 22" d="M37.5,53.07V100H62.61l-.11-.2-25-46.73Z" fill="#1f5274"/>
								<path id="路径_23" data-name="路径 23" d="M81.25,0H87.5V100H81.25Z" fill="#03ab9f"/>
								<path id="路径_24" data-name="路径 24" d="M87.5,0h6.25V100H87.5Z" fill="#21556f"/>
								<path id="路径_25" data-name="路径 25" d="M93.75,0H100V100H93.75Z" fill="#df81b3"/>
							</g>
						</g>
					</g>
				</g>
			</g>
		</g>
	</g>
</svg>
